<?xml version="1.0" encoding="UTF-8" standalone="no"?>
<!-- Created with Inkscape (http://www.inkscape.org/) -->

<svg
   xmlns:dc="http://purl.org/dc/elements/1.1/"
   xmlns:cc="http://creativecommons.org/ns#"
   xmlns:rdf="http://www.w3.org/1999/02/22-rdf-syntax-ns#"
   xmlns:svg="http://www.w3.org/2000/svg"
   xmlns="http://www.w3.org/2000/svg"
   xmlns:xlink="http://www.w3.org/1999/xlink"
   xmlns:sodipodi="http://sodipodi.sourceforge.net/DTD/sodipodi-0.dtd"
   xmlns:inkscape="http://www.inkscape.org/namespaces/inkscape"
   width="190"
   height="190"
   id="svg2"
   version="1.1"
   inkscape:version="0.48.5 r10040"
   sodipodi:docname="tabalanche-cam.svg">
  <defs
     id="defs4">
    <linearGradient
       id="linearGradient3917">
      <stop
         id="stop3919"
         offset="0"
         style="stop-color:#4e4e4e;stop-opacity:0;" />
      <stop
         style="stop-color:#ffffff;stop-opacity:0.68468469;"
         offset="0.70833331"
         id="stop3921" />
      <stop
         id="stop3923"
         offset="1"
         style="stop-color:#ffffff;stop-opacity:1;" />
    </linearGradient>
    <linearGradient
       id="linearGradient3903">
      <stop
         style="stop-color:#4e4e4e;stop-opacity:0.99215686;"
         offset="0"
         id="stop3905" />
      <stop
         id="stop3911"
         offset="0.70833331"
         style="stop-color:#4e4e4e;stop-opacity:1;" />
      <stop
         style="stop-color:#222222;stop-opacity:1;"
         offset="1"
         id="stop3907" />
    </linearGradient>
    <linearGradient
       id="linearGradient3883">
      <stop
         style="stop-color:#cf9a1c;stop-opacity:1;"
         offset="0"
         id="stop3885" />
      <stop
         style="stop-color:#e7b94b;stop-opacity:1;"
         offset="1"
         id="stop3887" />
    </linearGradient>
    <linearGradient
       id="linearGradient3851">
      <stop
         style="stop-color:#d6dee0;stop-opacity:1;"
         offset="0"
         id="stop3853" />
      <stop
         id="stop3855"
         offset="1"
         style="stop-color:#ffffff;stop-opacity:0;" />
      <stop
         style="stop-color:#ffffff;stop-opacity:0;"
         offset="1"
         id="stop3857" />
    </linearGradient>
    <linearGradient
       id="linearGradient3833">
      <stop
         id="stop3835"
         offset="0"
         style="stop-color:#d6dee0;stop-opacity:1;" />
      <stop
         style="stop-color:#ffffff;stop-opacity:1;"
         offset="0.71428573"
         id="stop3839" />
      <stop
         id="stop3837"
         offset="1"
         style="stop-color:#ffffff;stop-opacity:1;" />
    </linearGradient>
    <linearGradient
       id="linearGradient3825">
      <stop
         style="stop-color:#d38d5f;stop-opacity:1;"
         offset="0"
         id="stop3827" />
      <stop
         style="stop-color:#deaa87;stop-opacity:1;"
         offset="1"
         id="stop3829" />
    </linearGradient>
    <linearGradient
       inkscape:collect="always"
       id="linearGradient3809">
      <stop
         style="stop-color:#a05a2c;stop-opacity:1;"
         offset="0"
         id="stop3811" />
      <stop
         style="stop-color:#a05a2c;stop-opacity:0;"
         offset="1"
         id="stop3813" />
    </linearGradient>
    <linearGradient
       id="linearGradient3772">
      <stop
         style="stop-color:#d6d6d6;stop-opacity:1;"
         offset="0"
         id="stop3774" />
      <stop
         style="stop-color:#f4f4f4;stop-opacity:1;"
         offset="1"
         id="stop3776" />
    </linearGradient>
    <linearGradient
       inkscape:collect="always"
       xlink:href="#linearGradient3772"
       id="linearGradient3787"
       x1="60"
       y1="45"
       x2="60"
       y2="0"
       gradientUnits="userSpaceOnUse" />
    <linearGradient
       inkscape:collect="always"
       xlink:href="#linearGradient3833"
       id="linearGradient3791"
       gradientUnits="userSpaceOnUse"
       x1="110"
       y1="30"
       x2="65"
       y2="45"
       gradientTransform="translate(20,862.36218)" />
    <linearGradient
       inkscape:collect="always"
       xlink:href="#linearGradient3772"
       id="linearGradient3797"
       gradientUnits="userSpaceOnUse"
       gradientTransform="translate(30,862.36218)"
       x1="95"
       y1="35"
       x2="80"
       y2="40" />
    <linearGradient
       inkscape:collect="always"
       xlink:href="#linearGradient3772"
       id="linearGradient3801"
       gradientUnits="userSpaceOnUse"
       gradientTransform="translate(45,862.36218)"
       x1="95"
       y1="35"
       x2="80"
       y2="40" />
    <linearGradient
       inkscape:collect="always"
       xlink:href="#linearGradient3809"
       id="linearGradient3815"
       x1="175"
       y1="972.36218"
       x2="190"
       y2="972.36218"
       gradientUnits="userSpaceOnUse" />
    <linearGradient
       inkscape:collect="always"
       xlink:href="#linearGradient3809"
       id="linearGradient3823"
       x1="15"
       y1="110"
       x2="0"
       y2="110"
       gradientUnits="userSpaceOnUse" />
    <linearGradient
       inkscape:collect="always"
       xlink:href="#linearGradient3825"
       id="linearGradient3831"
       x1="100"
       y1="120"
       x2="100"
       y2="90"
       gradientUnits="userSpaceOnUse" />
    <linearGradient
       inkscape:collect="always"
       xlink:href="#linearGradient3833"
       id="linearGradient3843"
       gradientUnits="userSpaceOnUse"
       gradientTransform="translate(45,862.36218)"
       x1="110"
       y1="30"
       x2="65"
       y2="45" />
    <linearGradient
       inkscape:collect="always"
       xlink:href="#linearGradient3833"
       id="linearGradient3847"
       gradientUnits="userSpaceOnUse"
       gradientTransform="translate(70,862.36218)"
       x1="110"
       y1="30"
       x2="65"
       y2="45" />
    <linearGradient
       inkscape:collect="always"
       xlink:href="#linearGradient3851"
       id="linearGradient3859"
       gradientUnits="userSpaceOnUse"
       gradientTransform="translate(70,862.36218)"
       x1="65"
       y1="-5"
       x2="65"
       y2="10" />
    <linearGradient
       inkscape:collect="always"
       xlink:href="#linearGradient3851"
       id="linearGradient3863"
       gradientUnits="userSpaceOnUse"
       gradientTransform="translate(44.999997,862.36218)"
       x1="65"
       y1="-5"
       x2="65"
       y2="10" />
    <linearGradient
       inkscape:collect="always"
       xlink:href="#linearGradient3851"
       id="linearGradient3867"
       gradientUnits="userSpaceOnUse"
       gradientTransform="translate(19.999997,862.36218)"
       x1="65"
       y1="-5"
       x2="65"
       y2="10" />
    <linearGradient
       inkscape:collect="always"
       xlink:href="#linearGradient3851"
       id="linearGradient3871"
       gradientUnits="userSpaceOnUse"
       x1="100"
       y1="30"
       x2="60"
       y2="35" />
    <linearGradient
       inkscape:collect="always"
       xlink:href="#linearGradient3851"
       id="linearGradient3875"
       gradientUnits="userSpaceOnUse"
       x1="110"
       y1="35"
       x2="70"
       y2="40"
       gradientTransform="matrix(-1,0,0,1,115,862.36218)" />
    <linearGradient
       inkscape:collect="always"
       xlink:href="#linearGradient3851"
       id="linearGradient3879"
       gradientUnits="userSpaceOnUse"
       gradientTransform="translate(0,862.36218)"
       x1="110"
       y1="35"
       x2="70"
       y2="40" />
    <linearGradient
       inkscape:collect="always"
       xlink:href="#linearGradient3883"
       id="linearGradient3895"
       x1="185"
       y1="1047.3622"
       x2="5"
       y2="957.36218"
       gradientUnits="userSpaceOnUse" />
    <radialGradient
       inkscape:collect="always"
       xlink:href="#linearGradient3903"
       id="radialGradient3909"
       cx="130"
       cy="140"
       fx="130"
       fy="140"
       r="40"
       gradientUnits="userSpaceOnUse" />
    <radialGradient
       inkscape:collect="always"
       xlink:href="#linearGradient3917"
       id="radialGradient3915"
       gradientUnits="userSpaceOnUse"
       cx="130"
       cy="140"
       fx="130"
       fy="140"
       r="40" />
  </defs>
  <sodipodi:namedview
     id="base"
     pagecolor="#ffffff"
     bordercolor="#666666"
     borderopacity="1.0"
     inkscape:pageopacity="0.0"
     inkscape:pageshadow="2"
     inkscape:zoom="4.0526316"
     inkscape:cx="95"
     inkscape:cy="95"
     inkscape:document-units="px"
     inkscape:current-layer="layer1"
     showgrid="false"
     inkscape:window-width="1680"
     inkscape:window-height="987"
     inkscape:window-x="-8"
     inkscape:window-y="-8"
     inkscape:window-maximized="1">
    <inkscape:grid
       type="xygrid"
       id="grid2985"
       empspacing="2"
       visible="true"
       enabled="true"
       snapvisiblegridlinesonly="true"
       spacingx="5px"
       spacingy="5px" />
  </sodipodi:namedview>
  <metadata
     id="metadata7">
    <rdf:RDF>
      <cc:Work
         rdf:about="">
        <dc:format>image/svg+xml</dc:format>
        <dc:type
           rdf:resource="http://purl.org/dc/dcmitype/StillImage" />
        <dc:title></dc:title>
      </cc:Work>
    </rdf:RDF>
  </metadata>
  <g
     inkscape:label="Layer 1"
     inkscape:groupmode="layer"
     id="layer1"
     transform="translate(0,-862.36218)">
    <path
       sodipodi:nodetypes="czsc"
       inkscape:connector-curvature="0"
       id="path3845"
       d="m 85,952.36218 c 5,0 25,-90 30,-90 5,0 25,0 30,0 5,0 25,90 30,90"
       style="fill:url(#linearGradient3847);fill-opacity:1;stroke:none" />
    <path
       style="fill:url(#linearGradient3859);fill-opacity:1;stroke:none"
       d="m 85,952.36218 c 5,0 25,-90 30,-90 5,0 25,0 30,0 5,0 25,90 30,90"
       id="path3849"
       inkscape:connector-curvature="0"
       sodipodi:nodetypes="czsc" />
    <path
       style="fill:url(#linearGradient3843);fill-opacity:1;stroke:none"
       d="m 60,952.36218 c 5,0 25,-90 30,-90 5,0 25,0 30,0 5,0 25,90 30,90"
       id="path3841"
       inkscape:connector-curvature="0"
       sodipodi:nodetypes="czsc" />
    <path
       sodipodi:nodetypes="czsc"
       inkscape:connector-curvature="0"
       id="path3861"
       d="m 59.999997,952.36218 c 5,0 25,-90 30,-90 5,0 25.000003,0 30.000003,0 5,0 25,90 30,90"
       style="fill:url(#linearGradient3863);fill-opacity:1;stroke:none" />
    <path
       sodipodi:nodetypes="czsc"
       inkscape:connector-curvature="0"
       id="path3789"
       d="m 35,952.36218 c 5,0 25,-90 30,-90 5,0 25,0 30,0 5,0 25,90 30,90"
       style="fill:url(#linearGradient3791);fill-opacity:1;stroke:none" />
    <path
       style="fill:url(#linearGradient3867);fill-opacity:1;stroke:none"
       d="m 34.999997,952.36218 c 5,0 25,-90 30,-90 5,0 25.000003,0 30.000003,0 5,0 25,90 30,90"
       id="path3865"
       inkscape:connector-curvature="0"
       sodipodi:nodetypes="czsc" />
    <path
       style="fill:url(#linearGradient3787);fill-opacity:1;stroke:none"
       d="m 15,90 c 5,0 25,-90 30,-90 5,0 20,0 25,0 5,0 25,90 30,90"
       id="path3003"
       inkscape:connector-curvature="0"
       transform="translate(0,862.36218)"
       sodipodi:nodetypes="czsc" />
    <path
       style="fill:url(#linearGradient3875);fill-opacity:1;stroke:none"
       d="m 100,952.36218 c -5,0 -25,-90 -30,-90 -5,0 -20,0 -25,0 -5,0 -25,90 -30,90"
       id="path3873"
       inkscape:connector-curvature="0"
       sodipodi:nodetypes="czsc" />
    <path
       sodipodi:nodetypes="czsc"
       inkscape:connector-curvature="0"
       id="path3877"
       d="m 15,952.36218 c 5,0 25,-90 30,-90 5,0 20,0 25,0 5,0 25,90 30,90"
       style="fill:url(#linearGradient3879);fill-opacity:1;stroke:none" />
    <rect
       style="fill:#8d6449;fill-opacity:1;stroke:none"
       id="rect3881"
       width="190"
       height="100"
       x="0"
       y="90"
       transform="translate(0,862.36218)"
       rx="15"
       ry="15" />
    <rect
       ry="12.631579"
       rx="12.631579"
       y="957.36218"
       x="5"
       height="90"
       width="180"
       id="rect3891"
       style="fill:url(#linearGradient3895);fill-opacity:1;stroke:none" />
    <path
       transform="translate(0,862.36218)"
       style="fill:#57463c;fill-opacity:0.87765956;stroke:none"
       d="m 15,90 160,0 c 8.31,0 15,6.69 15,15 l 0,20 -190,0 0,-20 C 0,96.69 6.69,90 15,90 z"
       id="rect3928"
       inkscape:connector-curvature="0"
       sodipodi:nodetypes="sssccss" />
    <path
       sodipodi:type="arc"
       style="fill:#333333;fill-opacity:1;stroke:none"
       id="path3897"
       sodipodi:cx="130"
       sodipodi:cy="140"
       sodipodi:rx="40"
       sodipodi:ry="40"
       d="m 170,140 a 40,40 0 1 1 -80,0 40,40 0 1 1 80,0 z"
       transform="translate(-5,862.36218)" />
    <path
       transform="matrix(0.875,0,0,0.875,11.25,879.86218)"
       d="m 170,140 a 40,40 0 1 1 -80,0 40,40 0 1 1 80,0 z"
       sodipodi:ry="40"
       sodipodi:rx="40"
       sodipodi:cy="140"
       sodipodi:cx="130"
       id="path3901"
       style="fill:url(#radialGradient3909);fill-opacity:1;stroke:none"
       sodipodi:type="arc" />
    <path
       sodipodi:type="arc"
       style="fill:url(#radialGradient3915);fill-opacity:1.0;stroke:none"
       id="path3913"
       sodipodi:cx="130"
       sodipodi:cy="140"
       sodipodi:rx="40"
       sodipodi:ry="40"
       d="m 170,140 a 40,40 0 1 1 -80,0 40,40 0 1 1 80,0 z"
       transform="matrix(0.25,0,0,0.25,102.5,957.36218)" />
  </g>
</svg>
