<?xml version="1.0" encoding="UTF-8" standalone="no"?>
<!-- Created with Inkscape (http://www.inkscape.org/) -->

<svg
   width="256"
   height="256"
   id="svg2"
   version="1.1"
   inkscape:version="1.4.2 (ebf0e940d0, 2025-05-08)"
   sodipodi:docname="tabalanche-icon.svg"
   xmlns:inkscape="http://www.inkscape.org/namespaces/inkscape"
   xmlns:sodipodi="http://sodipodi.sourceforge.net/DTD/sodipodi-0.dtd"
   xmlns:xlink="http://www.w3.org/1999/xlink"
   xmlns="http://www.w3.org/2000/svg"
   xmlns:svg="http://www.w3.org/2000/svg"
   xmlns:rdf="http://www.w3.org/1999/02/22-rdf-syntax-ns#"
   xmlns:cc="http://creativecommons.org/ns#"
   xmlns:dc="http://purl.org/dc/elements/1.1/">
  <sodipodi:namedview
     id="base"
     pagecolor="#808080"
     bordercolor="#666666"
     borderopacity="1.0"
     inkscape:pageopacity="0.0"
     inkscape:pageshadow="2"
     inkscape:zoom="2.7890625"
     inkscape:cx="202.57703"
     inkscape:cy="128"
     inkscape:document-units="px"
     showgrid="false"
     inkscape:window-width="1503"
     inkscape:window-height="930"
     inkscape:window-x="0"
     inkscape:window-y="0"
     inkscape:window-maximized="1"
     inkscape:object-nodes="true"
     inkscape:showpageshadow="2"
     inkscape:pagecheckerboard="true"
     inkscape:deskcolor="#d1d1d1"
     inkscape:clip-to-page="true"
     inkscape:current-layer="layer1">
    <inkscape:grid
       type="xygrid"
       id="grid2985"
       empspacing="2"
       visible="false"
       enabled="true"
       snapvisiblegridlinesonly="true"
       spacingx="8"
       spacingy="8"
       originx="0"
       originy="0"
       units="px" />
  </sodipodi:namedview>
  <defs
     id="defs4">
    <linearGradient
       id="linearGradient4202">
      <stop
         id="stop4204"
         offset="0"
         style="stop-color:#75c7f0;stop-opacity:1;" />
      <stop
         style="stop-color:#e5e5e5;stop-opacity:1"
         offset="1"
         id="stop4206" />
    </linearGradient>
    <linearGradient
       id="linearGradient3825">
      <stop
         style="stop-color:#bf6a40;stop-opacity:1;"
         offset="0"
         id="stop3827" />
      <stop
         style="stop-color:#cc8866;stop-opacity:1;"
         offset="1"
         id="stop3829" />
    </linearGradient>
    <linearGradient
       inkscape:collect="always"
       id="linearGradient3809">
      <stop
         style="stop-color:#734026;stop-opacity:1;"
         offset="0"
         id="stop3811" />
      <stop
         style="stop-color:#734026;stop-opacity:0;"
         offset="1"
         id="stop3813" />
    </linearGradient>
    <linearGradient
       inkscape:collect="always"
       xlink:href="#linearGradient3809"
       id="linearGradient3815"
       x1="172.1875"
       y1="972.20599"
       x2="190"
       y2="972.36218"
       gradientUnits="userSpaceOnUse"
       gradientTransform="matrix(1.3473684,0,0,1.3473684,0,-1153.9196)" />
    <linearGradient
       inkscape:collect="always"
       xlink:href="#linearGradient3809"
       id="linearGradient3823"
       x1="17.8125"
       y1="109.84375"
       x2="0"
       y2="110"
       gradientUnits="userSpaceOnUse"
       gradientTransform="matrix(1.3473684,0,0,1.3473684,0,8)" />
    <linearGradient
       inkscape:collect="always"
       xlink:href="#linearGradient3825"
       id="linearGradient3831"
       x1="95"
       y1="124.6875"
       x2="95"
       y2="89.0625"
       gradientUnits="userSpaceOnUse"
       gradientTransform="matrix(1.3473684,0,0,1.3473684,0,8)" />
    <linearGradient
       inkscape:collect="always"
       xlink:href="#linearGradient4202"
       id="linearGradient25"
       gradientUnits="userSpaceOnUse"
       gradientTransform="matrix(1.3473684,0,0,1.3473684,0,-291.55739)"
       x1="30"
       y1="902.36218"
       x2="47.5"
       y2="832.67468" />
  </defs>
  <metadata
     id="metadata7">
    <rdf:RDF>
      <cc:Work
         rdf:about="">
        <dc:format>image/svg+xml</dc:format>
        <dc:type
           rdf:resource="http://purl.org/dc/dcmitype/StillImage" />
      </cc:Work>
    </rdf:RDF>
  </metadata>
  <g
     inkscape:groupmode="layer"
     id="layer2"
     inkscape:label="box"
     style="display:inline">
    <path
       style="display:inline;fill:#cc8866;stroke:none;stroke-width:1.34737;fill-opacity:1"
       d="M 24,256 V 168 L 0,184 24,128 h 208 l 24,56 -24,-16 v 88 z"
       id="path2993"
       inkscape:connector-curvature="0"
       sodipodi:nodetypes="ccccccccc" />
    <path
       style="display:inline;fill:url(#linearGradient3823);fill-opacity:1;stroke:none;stroke-width:1.34737"
       d="M 24,168 0,184 24,128 Z"
       id="path3805"
       inkscape:connector-curvature="0"
       sodipodi:nodetypes="cccc" />
    <path
       sodipodi:nodetypes="cccc"
       inkscape:connector-curvature="0"
       id="path3807"
       d="m 232,168 24,16 -24,-56 z"
       style="display:inline;fill:url(#linearGradient3815);fill-opacity:1;stroke:none;stroke-width:1.34737" />
    <path
       sodipodi:nodetypes="ccccccc"
       inkscape:connector-curvature="0"
       id="path3803"
       d="m 16,192 8,-64 40,-16 h 128 l 40,16 8,64 z"
       style="display:inline;fill:url(#linearGradient3831);fill-opacity:1;stroke:none;stroke-width:1.34737" />
  </g>
  <g
     inkscape:label="tabs"
     inkscape:groupmode="layer"
     id="layer1"
     transform="translate(0,-862.36218)"
     style="display:inline">
    <path
       id="path16"
       style="display:inline;fill:url(#linearGradient25);fill-opacity:1;stroke:none;stroke-width:1.34737"
       d="m 61.994141,862.36218 a 7.6846581,7.6846581 0 0 0 -7.449219,5.82031 L 24,990.36218 H 76 232 L 213.45508,916.18249 A 7.6846509,7.6846509 0 0 0 206,910.36218 h -16 a 7.6846629,7.6846629 0 0 0 -7.45508,5.82031 L 182,918.36218 177.45508,900.18249 A 7.6846523,7.6846523 0 0 0 170,894.36218 h -20 a 7.6846625,7.6846625 0 0 0 -7.45508,5.82031 L 142,902.36218 137.45508,884.18249 A 7.6846526,7.6846526 0 0 0 130,878.36218 h -20 a 7.6846628,7.6846628 0 0 0 -7.45508,5.82031 L 102,886.36218 97.455078,868.18249 a 7.6846581,7.6846581 0 0 0 -7.449219,-5.82031 z" />
    <path
       id="rect7"
       style="fill:#fbfdfe;stroke-width:2;fill-opacity:1"
       d="m 102,886.36218 26,104 h 28 L 130.72852,889.27234 A 3.8423263,3.8423263 0 0 0 127,886.36218 Z m 40,16 22,88 h 28 L 170.72852,905.27234 A 3.8423262,3.8423262 0 0 0 167,902.36218 Z m 40,16 18,72 h 24 L 206.60547,920.78796 A 3.2019383,3.2019383 0 0 0 203.5,918.36218 Z" />
  </g>
  <g
     inkscape:groupmode="layer"
     id="layer3"
     inkscape:label="slices"
     style="display:none">
    <rect
       style="display:inline;opacity:.25;fill:#555555;fill-opacity:1;stroke:none;stroke-width:2"
       id="tabalanche-box"
       width="256"
       height="256"
       x="0"
       y="0"
       inkscape:label="tabalanche-box" />
  </g>
</svg>
